# xmcd CD database file
#
# Track frame offsets:
#	150
#	19880
#	38110
#	57840
#
# Disc length: 1011 seconds
#
# Revision: 0
# Processed by: cddbd v1.5.1PL2 Copyright (c) Steve Scherf et al.
# Submitted via: CDex 1.51
#
DISCID=2b03f104
DTITLE=阿部玲子・宮崎羽衣・近江知永 - エガオヲミセテ
DYEAR=2005
DGENRE=JPop
TTITLE0=エガオヲミセテ
TTITLE1=Love Prisoner
TTITLE2=エガオヲミセテ (instrumental)
TTITLE3=Love Prisoner (instrumental)
EXTD=YEAR: 2005
EXTT0=
EXTT1=
EXTT2=
EXTT3=
PLAYORDER=
